<?xml version="1.0" encoding="utf-8"?>
<!-- Generator: Adobe Illustrator 18.0.0, SVG Export Plug-In . SVG Version: 6.00 Build 0)  -->
<!DOCTYPE svg PUBLIC "-//W3C//DTD SVG 1.1//EN" "http://www.w3.org/Graphics/SVG/1.1/DTD/svg11.dtd">
<svg version="1.1" id="Layer_1" xmlns="http://www.w3.org/2000/svg" xmlns:xlink="http://www.w3.org/1999/xlink" x="0px" y="0px"
	 viewBox="0 0 1080 1296" enable-background="new 0 0 1080 1296" xml:space="preserve">
<g>
	<g>
		<path d="M776.4,688.8c-9.9,4-8.1,9.9-8.3,14.7c-2.4,64.5-10.9,77.1-74.5,84.4c-50.1,5.7-102.9,14.9-146.7-23.8
			c-19.6-17.3-36-37.8-40.5-63.7c-4.3-24.6-19.9-26.8-39.4-26.8c-19.4-0.1-32.9,2.9-40.5,26c-21.6,66.1-59.8,91.7-129.1,91.5
			c-23.4-0.1-46.7,0.6-70.1-4.5c-49-10.8-64.1-29.4-62-79.9c0.3-6.1,3.5-12.7-1.6-18.4c-11.3,17.7-14,57.6-5.9,93.3
			c8,35.4,16.4,70.6,24.5,106c1.7,7.2,4.2,15.5-3.3,20.5c-7.3,4.9-14.3-0.6-20.8-4c-23.6-12-37.7-30.3-39-57.8
			c-1.2-26.6-5.3-53.2-5.3-79.8c0-58.2-11.4-113-30.5-168.6C31.8,448.7,97.6,237.2,219.7,146.4c57.8-43,123.8-61,195.7-57.2
			c22.4,1.2,41.7,9.4,55.9,27c7.4,9.1,13.8,13,26.9,9.9c114.2-27,221.3,13.5,284.8,114.8c63.8,101.8,108.7,214.6,72.8,334.1
			c-27.8,92.7-35.2,185.4-42.1,279.5c-2.3,31.3-23.2,43.8-47.8,53.5c-15.1,5.9-16.8-4.8-14.7-15.3c5.3-26.1,10.5-52.4,18-77.9
			C781.4,773.4,780.3,732,776.4,688.8z M208.6,511.1c-14.8,17.7-25,37.7-31.4,60.3c-7.8,27.2-26.9,52-10.9,87.7
			c17.1-32.1,41.2-43,72.2-46c141.7-13.9,283.4-10.3,425.1-3.2c38.8,2,80.5,1.9,102.2,54.6c18.3-57.5-23-92.5-20.8-139.2
			c-32.6,25.9-64.1,39.7-105,45c34-57.6,47.5-113.2,15.3-174.9c-7,19.8,0.1,42.5-21.5,56.2c-1.3-6.7-2.6-10.7-2.9-14.8
			c-5.3-74.1-59.7-143.3-130-166c-14.7-4.7-29-5.4-44.1-2.6C364.8,285.8,301.9,373,310.1,471.7c0.9,10.5,7,22.4-5.7,32.7
			c-21.7-26-24.1-57.7-34.6-93.9c-12.6,60.5-16.1,111.9,26.5,156.3C248.3,573.1,230.9,561.3,208.6,511.1z M625.5,626.1
			c-18.1,0-36.4-1.8-54.2,0.3c-53,6.4-66,28.2-47.6,78.5c4,10.8,10.5,20.9,17.1,30.4c30,43.6,75.3,42.3,120.8,40.3
			c88.2-3.9,100.4-19.4,85.6-105.3c-4.3-25.1-17.9-37.2-42-40.3C678.7,626.6,652.3,623.1,625.5,626.1z M283.2,775.7
			c79.2,2.2,125.7-33.2,131.3-97.9c2.5-29.1-9.5-44-37.7-48.4c-52.1-8.1-104.1-6.8-155.9,1.7c-19.9,3.3-31.1,15.6-35.4,35.9
			c-18.3,85.6-3.4,104.9,85,108.7C274.7,775.9,279,775.7,283.2,775.7z"/>
	</g>
	<g>
		<path d="M244,1033.4c0,57.5-39.1,103.7-120.3,103.7h-56c-16,0-28.7-3-28.7-13.9c0-0.6,0,0,0-0.6c0-10.1,10.1-13.6,10.1-28.1v-122
			c0-14.5-10.1-18.1-10.1-28.1c0-0.3,0,0,0-0.3c0-11.3,12.7-14.2,28.7-14.2h56C204.9,929.7,244,975.9,244,1033.4z M177.7,1033.4
			c0-42.9-17.8-80.3-53.6-80.3c-10.1,0-14.5,4.7-14.5,19.3v122c0,14.5,4.4,19.3,14.5,19.3C159.9,1113.7,177.7,1076.4,177.7,1033.4z"
			/>
		<path d="M487.5,1005.3c0,0.3,0,0,0,0.3c0,10.1-15.1,16.6-20.4,30.5l-29.9,80.6c-5.3,14.2-7.7,21.3-24,21.3
			c-15.7,0-20.7-3.9-25.2-16.9l-16.6-49.5l-17.5,45c-5.3,14.2-7.1,21.3-23.7,21.3c-15.7,0-21-4.1-26.4-16.9l-33.8-81.2
			c-5.6-13.9-18.7-19.3-18.7-32.3c0-0.6,0-0.3,0-0.6c0-11.3,13-15.1,39.7-15.1c21.6,0,41.8,1.2,41.8,12.1c0,0.6,0,0,0,0.6
			c0,10.1-9.2,14.8-4.7,28.1l15.4,45.3l24.9-72.9c3-8.6,5.3-13.3,18.4-13.3c13.3,0,15.7,3.5,19.5,16.6l20.7,66.6l13-40.3
			c5.6-17.2-4.1-19-4.1-28.4c0-0.3,0,0,0-0.3c0-10.4,13.6-14.2,26.7-14.2C474.8,991.9,487.5,995.8,487.5,1005.3z"/>
		<path d="M573.4,1123.5c0,0.6,0,0.3,0,0.6c0,11-18.4,13.9-40,13.9c-21.6,0-40-3-40-13.9c0-0.3,0,0,0-0.6c0-10.1,9.8-13.6,9.8-28.1
			v-43c0-14.2-9.8-17.8-9.8-27.8c0-0.6,0-0.3,0-0.6c0-11,11.5-18.7,34.4-27.3c19.3-7.1,35.8-7.7,35.8,9.5c0,1.5,0,89.2,0,89.2
			C563.6,1109.8,573.4,1113.4,573.4,1123.5z M499,946.6c0-19.8,15.7-31.1,34.7-31.1c18.7,0,34.7,11.3,34.7,31.1
			c0,19.8-16,31.1-34.7,31.1C514.7,977.7,499,966.5,499,946.6z"/>
		<path d="M736.9,1155.1c0,33.2-34.1,52.1-78.8,52.1c-35.8,0-77.9-10.4-80-41.8c-1.5-21.3,9.5-30.5,21-31.7
			c-5.3-11.6-3-25.8,8.3-40.6c-13.3-10.1-21.6-24.9-21.6-43.3c0-35.2,30.8-58.1,70.5-58.1c6.2,0,11.9,0.6,17.5,1.8
			c3.9-9.5,10.1-19,17.8-26.4c14.2-14.2,33.5-17.5,42.4-1.5c6.5,12.2,2.1,26.4-15.4,29.6c-9.2,1.8-16.3,0.6-24.6,4.5
			c20.1,9.5,33.2,26.9,33.2,50.1c0,35.5-30.8,58.1-70.8,58.1c-8.6,0-16.6-1.2-24.3-3c-4.4,16.3,24.6,13,48.3,13
			C717.9,1118.1,736.9,1129.4,736.9,1155.1z M677.7,1168.5c0-5.9-5.9-9.5-21-9.5c-11.9,0-21.9-1.5-30.5-4.4
			c0.9,19.3,20.4,25.8,33.2,25.8C670.2,1180.3,677.9,1176.5,677.7,1168.5z M643.3,1051.2c1.8,21.9,7.7,37.9,16.6,37
			c8.6-0.9,11.8-17.5,9.8-39.4c-1.8-21.9-7.7-37.6-16.6-37C644.2,1012.7,641.2,1029.2,643.3,1051.2z"/>
		<path d="M915.8,1123.5c0,0.6,0,0.3,0,0.6c0,11-18.7,13.9-40.3,13.9c-21.3,0-40-3-40-13.9c0-0.3,0,0,0-0.6
			c0-10.1,10.1-13.6,10.1-28.1v-50.7c0-20.1-5.6-27.5-16.3-27.5c-8.9,0-16,7.7-16.3,25.8v52.4c0,14.5,10.1,18.1,10.1,28.1
			c0,0.6,0,0.3,0,0.6c0,11-18.7,13.9-40,13.9c-21.6,0-40.3-3-40.3-13.9c0-0.3,0,0,0-0.6c0-10.1,10.1-13.6,10.1-28.1v-122
			c0-14.2-10.1-17.8-10.1-27.9c0-0.6,0-0.3,0-0.6c0-11,11.5-18.7,34.4-27.3c19.5-7.1,35.8-7.7,35.8,9.5c0,1.5,0,78.2,0,78.2
			c8.6-8,19.5-13,32.3-13.3c40.3-1.5,60.4,24.6,60.4,57.5v45.9C905.7,1109.8,915.8,1113.4,915.8,1123.5z"/>
		<path d="M991,1140c-31.4,0-52.4-22.2-52.4-56.6v-63.1c-3,0-5,0-6.2,0c-7.1,0-13.6-4.1-13.6-12.4c0-11.2,19.3-34.4,44.4-48.9
			c18.1-10.4,35.5-9.8,35.5,7.1c0,6.5,0,20.7,0,30.5c10.7,0,19.5,0,21.9,0c9.2,0,13.6,5,13.6,11.8s-4.4,11.8-13.6,11.8
			c-2.4,0-11.3,0-21.9,0v56c0,22.5,12.1,21.9,21.3,18.7c7.1-3,12.2-5,16.3-2.7C1049.1,1098.6,1032.5,1140,991,1140z"/>
	</g>
</g>
</svg>
